<?xml version="1.0" standalone="no"?>
<!DOCTYPE svg PUBLIC "-//W3C//DTD SVG 20010904//EN"
 "http://www.w3.org/TR/2001/REC-SVG-20010904/DTD/svg10.dtd">
<svg version="1.0" xmlns="http://www.w3.org/2000/svg"
 width="256.000000pt" height="256.000000pt" viewBox="0 0 256.000000 256.000000"
 preserveAspectRatio="xMidYMid meet">

<g transform="translate(0.000000,256.000000) scale(0.100000,-0.100000)"
fill="#000000" stroke="none">
<path d="M0 1280 l0 -1280 1280 0 1280 0 0 1280 0 1280 -1280 0 -1280 0 0
-1280z m1358 761 l74 -108 -74 -111 c-40 -62 -75 -112 -78 -112 -3 0 -38 50
-78 111 l-74 112 73 108 c40 60 76 109 79 109 3 0 38 -49 78 -109z m-108 -376
c0 -6 -156 -243 -170 -258 -10 -12 -153 210 -147 227 3 8 43 70 87 137 l82
121 74 -111 c41 -61 74 -113 74 -116z m290 105 c45 -67 84 -128 87 -136 6 -17
-137 -239 -147 -227 -24 26 -171 256 -168 262 4 11 142 221 145 221 2 0 39
-54 83 -120z m-221 -203 c19 -28 58 -88 87 -133 l52 -81 -84 -129 c-47 -71
-89 -129 -94 -129 -8 0 -168 236 -173 255 -2 9 165 270 173 270 3 0 20 -24 39
-53z m-345 -99 l74 -112 -86 -128 c-46 -70 -88 -125 -92 -123 -5 3 -40 52 -79
110 l-72 104 87 131 c48 71 89 130 91 130 2 0 36 -50 77 -112z m785 -26 l82
-122 -72 -105 c-39 -58 -74 -107 -79 -110 -4 -2 -45 53 -92 123 l-85 127 74
114 c41 63 78 110 82 105 5 -5 45 -64 90 -132z m-594 -267 l87 -135 -77 -120
c-42 -66 -81 -122 -85 -125 -5 -3 -49 54 -98 126 l-90 132 86 129 c47 70 86
128 88 128 1 0 41 -61 89 -135z m413 -1 l80 -121 -90 -132 c-49 -72 -93 -129
-97 -126 -5 2 -43 59 -85 125 l-78 120 88 136 c48 74 90 131 94 127 4 -4 44
-62 88 -129z m-803 -16 l73 -106 -86 -131 c-48 -72 -89 -130 -92 -130 -10 0
-152 218 -148 227 10 29 164 251 172 249 4 -2 41 -50 81 -109z m1180 -9 c44
-67 82 -126 83 -131 4 -9 -138 -227 -148 -227 -7 -1 -175 256 -173 264 4 15
145 215 151 215 4 0 43 -55 87 -121z m-982 -280 l86 -126 -82 -126 c-45 -70
-87 -127 -93 -127 -6 0 -50 58 -98 129 l-88 128 88 132 c48 72 91 128 94 124
4 -5 46 -65 93 -134z m807 2 l82 -123 -88 -129 c-48 -71 -92 -129 -98 -129 -6
0 -48 57 -93 127 l-82 126 91 134 c51 73 95 130 99 126 3 -5 43 -64 89 -132z
m-417 0 c42 -65 77 -122 77 -128 0 -14 -150 -228 -160 -228 -10 0 -160 214
-160 229 0 12 153 246 161 246 3 0 40 -53 82 -119z m-810 7 c35 -51 70 -102
77 -114 11 -18 5 -32 -62 -132 -69 -104 -76 -111 -90 -95 -35 41 -140 203
-136 211 4 11 142 222 145 222 1 0 31 -42 66 -92z m1670 -152 c-8 -11 -144
-210 -147 -214 -2 -1 -38 50 -81 115 -69 104 -76 119 -65 137 7 12 42 63 77
114 l65 94 79 -118 c43 -65 75 -122 72 -128z m-1833 -141 l61 -90 -71 -3 c-38
-2 -101 -2 -140 0 l-70 3 68 102 c52 79 70 99 79 90 6 -7 39 -52 73 -102z
m355 15 c37 -55 66 -103 63 -105 -3 -3 -67 -4 -141 -3 l-137 3 68 102 c37 57
70 103 73 103 3 0 36 -45 74 -100z m420 -10 l65 -95 -70 -3 c-38 -2 -101 -2
-140 0 l-70 3 68 102 c37 56 70 99 74 95 4 -4 36 -50 73 -102z m375 -98 c-38
-2 -102 -2 -140 0 l-70 3 71 103 71 104 69 -104 69 -103 -70 -3z m422 105 l68
-102 -137 -3 c-74 -1 -138 0 -141 3 -5 5 128 205 137 205 3 0 36 -46 73 -103z
m363 -4 l65 -98 -64 -3 c-36 -2 -97 -2 -136 0 l-71 3 67 98 c36 53 68 97 70
97 2 0 33 -44 69 -97z m135 -168 l0 -25 -1180 0 -1180 0 0 25 0 25 1180 0
1180 0 0 -25z"/>
</g>
</svg>
