<?xml version="1.0" encoding="utf-8"?>
<!-- Generator: Adobe Illustrator 25.0.0, SVG Export Plug-In . SVG Version: 6.00 Build 0)  -->
<svg version="1.1" id="Layer_1" xmlns="http://www.w3.org/2000/svg" xmlns:xlink="http://www.w3.org/1999/xlink" x="0px" y="0px"
	 viewBox="0 0 185 78" style="enable-background:new 0 0 185 78;" xml:space="preserve">
<style type="text/css">
	.st0{fill-rule:evenodd;clip-rule:evenodd;fill:#FFFFFF;}
</style>
<desc>Created with Sketch.</desc>
<g id="Assets">
	<g id="Artboard" transform="translate(-468.000000, -427.000000)">
		<g id="logo-horizontal-copy" transform="translate(468.000000, 427.000000)">
			<path id="logo" class="st0" d="M181.5,58.3h3V45.7h-3V58.3z M169.1,58.3h9.9v-2.5h-6.3l5.9-8.1v-1.9h-9.1v2.5h5.3l-5.8,8V58.3z
				 M163.6,58.3h3V45.7h-3V58.3z M152.1,58.3h3v-4.9h5.4v-2.2h-5.4v-3.1h5.8v-2.4h-8.8V58.3z M140.6,58.3h3v-4.9h5.4v-2.2h-5.4v-3.1
				h5.8v-2.4h-8.8V58.3z M131.6,58.5c2.8,0,5.8-1.4,5.8-5.8v-7h-3v7c0,2.2-0.9,3.4-2.8,3.4c-1.9,0-2.8-1.1-2.8-3v-7.3h-3.1v7.4
				C125.7,57.2,128.7,58.5,131.6,58.5L131.6,58.5z M115.6,58.3h1.5V45.7h-1.5V58.3z M106.1,58.3h7V57h-5.5V45.7h-1.5V58.3z
				 M98.4,58.5c1.7,0,2.7-0.2,3.8-0.6v-5.8h-1.5V57c-0.5,0.1-1.1,0.2-2,0.2c-2.9,0-5.3-1.6-5.3-5.3c0-3.7,2.3-5.1,5-5.1
				c1.8,0,2.6,0.3,3.2,0.6l0.4-1.2c-0.5-0.2-1.4-0.6-3.7-0.6c-4.1,0-6.5,2.6-6.5,6.5C91.9,55.8,94.3,58.5,98.4,58.5L98.4,58.5z
				 M81.9,58.3h7.5v-1.2h-6v-4.5h5.2v-1.2h-5.2v-4.5H89v-1.2h-7.1V58.3z M69.8,57.1V46.9h1.9c3.4,0,5.6,1.7,5.6,5.2
				c0,3.3-2,4.9-5.3,4.9H69.8z M68.3,58.3h3.5c4.2,0,6.9-1.9,6.9-6.3c0-4.1-2.9-6.2-7-6.2h-3.4V58.3z M175.9,39.2h8.7v-2.4H179V34
				h4.9v-2.2H179V29h5.3v-2.4h-8.3V39.2z M169.4,39.2h3V26.7h-3V39.2z M158.4,32.8V29h1.5c1.6,0,2.1,0.5,2.1,1.8
				c0,1.2-0.8,1.9-2.6,1.9H158.4z M166.6,39.4l0.7-2.3c-1.4-0.4-2.2-0.9-2.9-1.6l-1.3-1.4c1.4-0.8,2-2,2-3.4c0-2.8-2-4.1-4.9-4.1
				h-4.9v12.6h3.1v-4.3h0.9c0.2,0,0.5,0,0.7,0l1.4,1.7C162.8,38,164.1,39.3,166.6,39.4L166.6,39.4z M143.7,39.2h8.7v-2.4h-5.7V34
				h4.9v-2.2h-4.9V29h5.3v-2.4h-8.3V39.2z M132.8,39.2h8.5v-2.4h-5.5V26.7h-3V39.2z M121.9,39.2h8.5v-2.4H125V26.7h-3V39.2z
				 M111.8,33.4l1.5-4.8l1.3,4.8H111.8z M106.6,39.2h3l1.4-3.7h4.3l1.2,3.7h3.1l-4.3-12.6h-3.9L106.6,39.2z M100.4,39.4
				c1.5,0,2.7-0.2,4.2-0.7V33h-3v3.9c-0.2,0-0.5,0-0.8,0c-2.3,0-4.2-1.3-4.2-4c0-2.8,1.7-3.9,3.9-3.9c1.3,0,1.8,0.2,3,0.5l0.8-2.2
				c-1-0.4-2-0.8-3.8-0.8c-4.6,0-7.1,2-7.1,6.5C93.4,37.4,96.2,39.4,100.4,39.4L100.4,39.4z M78,39.2h7.5V38h-6v-4.5h5.2v-1.2h-5.2
				v-4.5h5.6v-1.2H78V39.2z M68.4,39.2h7V38h-5.5V26.7h-1.5V39.2z M37.2,3.1c-2.2-1.5-6.5-2.4-10-2.4c-7.6,0-14.7,2.3-19.6,7
				C2.5,12.7,0,19.1,0,27.1C0,28,0,38.3,0,39.1h11.4c0-0.7,0-10.9,0-11.6c0.1-16,6-25.8,16.7-25.7c5.1,0.1,7,1.8,8.3,2.9L37.2,3.1z
				 M52.8,39.2v1.1c-2.8,0.3-5.1,1.2-5.1,5.3c0,0.2,0,11.5,0,11.5c0,18.6-11.7,20.5-18.7,20.5c-7,0-18.7-1.9-18.7-20.5V43.6h1.1
				v14.6c0,7.5,3.5,17.2,12.5,17.2c7.4,0,12.5-4.2,12.5-14.7l0-21.6H52.8z"/>
		</g>
	</g>
</g>
</svg>
